<svg width="4157" height="568" viewBox="0 0 4157 568" fill="none" xmlns="http://www.w3.org/2000/svg">
<g clip-path="url(#clip0_180_2386)">
<path d="M381.82 105.65L455.855 99.2289L509.753 1.02661L441.611 43.5L300.131 0L189.092 353.299C185.908 363.43 177.904 371.322 167.729 374.364L0 424.5L47.92 457.267C178.761 546.733 354.33 532.594 469.167 423.343L681.361 221.469L300.131 335.248L384.588 284.185C404.987 271.852 415.119 247.782 409.681 224.574L381.82 105.65Z" fill="#4B3FF5"/>
<path d="M585 374.5L585.503 376.958C595.13 424.06 631.94 460.87 679.042 470.497L681.5 471L679.042 471.502C631.94 481.13 595.13 517.939 585.503 565.041L585 567.5L584.497 565.041C574.87 517.939 538.06 481.13 490.958 471.502L488.5 471L490.958 470.497C538.06 460.87 574.87 424.06 584.497 376.958L585 374.5Z" fill="#4B3FF5"/>
<path d="M2447.83 240.194C2461.4 211.513 2482.24 188.116 2510.37 170.002C2539 151.888 2572.66 142.831 2611.34 142.831C2649.01 142.831 2682.67 151.637 2712.3 169.247C2741.94 186.355 2765.05 211.01 2781.62 243.213C2798.7 274.912 2807.24 311.895 2807.24 354.161C2807.24 396.427 2798.7 433.661 2781.62 465.864C2765.05 498.066 2741.69 522.973 2711.55 540.584C2681.91 558.195 2648.51 567 2611.34 567C2572.16 567 2538.25 558.195 2509.62 540.584C2481.49 522.47 2460.89 499.073 2447.83 470.392V560.962H2395.84V2.44824H2447.83V240.194ZM2753.75 354.161C2753.75 319.946 2746.96 290.51 2733.4 265.855C2720.34 240.697 2702.26 221.577 2679.15 208.494C2656.04 195.412 2629.92 188.871 2600.79 188.871C2572.66 188.871 2546.79 195.664 2523.18 209.249C2500.07 222.835 2481.74 242.206 2468.18 267.365C2454.62 292.523 2447.83 321.707 2447.83 354.916C2447.83 388.125 2454.62 417.308 2468.18 442.466C2481.74 467.625 2500.07 486.997 2523.18 500.582C2546.79 514.168 2572.66 520.96 2600.79 520.96C2629.92 520.96 2656.04 514.419 2679.15 501.337C2702.26 487.751 2720.34 468.379 2733.4 443.221C2746.96 417.56 2753.75 387.873 2753.75 354.161Z" fill="#4B3FF5"/>
<path d="M2880.18 354.161C2880.18 311.895 2888.47 274.912 2905.05 243.213C2922.13 211.01 2945.48 186.355 2975.12 169.247C3005.26 151.637 3039.17 142.831 3076.84 142.831C3116.02 142.831 3149.68 151.888 3177.8 170.002C3206.44 188.116 3227.03 211.262 3239.59 239.439V148.869H3292.33V560.962H3239.59V469.637C3226.53 497.815 3205.68 521.212 3177.05 539.829C3148.92 557.943 3115.27 567 3076.09 567C3038.91 567 3005.26 558.195 2975.12 540.584C2945.48 522.973 2922.13 498.066 2905.05 465.864C2888.47 433.661 2880.18 396.427 2880.18 354.161ZM3239.59 354.916C3239.59 321.707 3232.81 292.523 3219.25 267.365C3205.68 242.206 3187.1 222.835 3163.49 209.249C3140.38 195.664 3114.76 188.871 3086.63 188.871C3057.5 188.871 3031.38 195.412 3008.27 208.494C2985.17 221.577 2966.83 240.697 2953.27 265.855C2940.21 290.51 2933.68 319.946 2933.68 354.161C2933.68 387.873 2940.21 417.56 2953.27 443.221C2966.83 468.379 2985.17 487.751 3008.27 501.337C3031.38 514.419 3057.5 520.96 3086.63 520.96C3114.76 520.96 3140.38 514.168 3163.49 500.582C3187.1 486.997 3205.68 467.625 3219.25 442.466C3232.81 417.308 3239.59 388.125 3239.59 354.916Z" fill="#4B3FF5"/>
<path d="M3554.4 567C3507.18 567 3468.5 556.182 3438.36 534.546C3408.72 512.406 3392.15 482.468 3388.63 444.731H3442.88C3445.39 467.876 3456.19 486.745 3475.28 501.337C3494.87 515.425 3520.99 522.47 3553.64 522.47C3582.27 522.47 3604.63 515.677 3620.7 502.092C3637.28 488.506 3645.57 471.65 3645.57 451.523C3645.57 437.435 3641.05 425.862 3632 416.805C3622.96 407.748 3611.41 400.704 3597.34 395.672C3583.78 390.137 3565.2 384.351 3541.59 378.313C3510.95 370.262 3486.08 362.211 3466.99 354.161C3447.9 346.11 3431.58 334.286 3418.02 318.688C3404.96 302.586 3398.43 281.202 3398.43 254.534C3398.43 234.407 3404.45 215.79 3416.51 198.683C3428.57 181.575 3445.64 167.989 3467.75 157.926C3489.85 147.863 3514.96 142.831 3543.09 142.831C3587.3 142.831 3622.96 154.152 3650.09 176.795C3677.21 198.934 3691.78 229.627 3693.79 268.874H3641.05C3639.54 244.722 3629.99 225.35 3612.41 210.759C3595.33 195.664 3571.73 188.116 3541.59 188.116C3514.96 188.116 3493.36 194.406 3476.79 206.985C3460.21 219.564 3451.92 235.162 3451.92 253.779C3451.92 269.881 3456.69 283.214 3466.24 293.781C3476.29 303.844 3488.59 311.895 3503.16 317.933C3517.73 323.468 3537.32 329.757 3561.93 336.802C3591.57 344.852 3615.18 352.651 3632.76 360.199C3650.34 367.746 3665.41 378.816 3677.97 393.408C3690.52 408 3697.05 427.371 3697.56 451.523C3697.56 473.663 3691.53 493.538 3679.47 511.149C3667.42 528.256 3650.59 541.842 3628.99 551.905C3607.39 561.968 3582.53 567 3554.4 567Z" fill="#4B3FF5"/>
<path d="M3992.74 141.322C4023.89 141.322 4051.76 147.863 4076.38 160.945C4101.49 174.027 4121.08 194.154 4135.15 221.325C4149.72 247.993 4157 280.699 4157 319.442V560.962H4105.01V325.48C4105.01 280.699 4093.71 246.483 4071.1 222.835C4049 199.186 4018.61 187.361 3979.93 187.361C3940.25 187.361 3908.6 199.94 3885 225.099C3861.39 250.257 3849.58 287.24 3849.58 336.047V560.962H3796.84V2.44824H3849.58V219.061C3862.64 194.406 3881.73 175.285 3906.85 161.7C3932.46 148.114 3961.1 141.322 3992.74 141.322Z" fill="#4B3FF5"/>
<path d="M774 0C825.548 0 867.336 41.8584 867.336 93.4934H774V0Z" fill="#4B3FF5"/>
<path d="M774 93.4932H867.336V186.987H774V93.4932Z" fill="#4B3FF5"/>
<path d="M1147.34 93.4941H1240.68V186.987H1147.34V93.4941Z" fill="#4B3FF5"/>
<path d="M774 186.987H867.336V280.479H774V186.987Z" fill="#4B3FF5"/>
<path d="M1147.34 186.987H1240.68V280.479H1147.34V186.987Z" fill="#4B3FF5"/>
<path d="M774 280.479H867.336V373.975H774V280.479Z" fill="#4B3FF5"/>
<path d="M960.672 280.481H1054.01V373.975H960.672V280.481Z" fill="#4B3FF5"/>
<path d="M867.336 280.479L960.671 280.48V373.975C909.123 373.975 867.336 332.114 867.336 280.479Z" fill="#4B3FF5"/>
<path d="M1054.01 280.481C1105.55 280.481 1147.34 322.34 1147.34 373.975H1054.01V280.481Z" fill="#4B3FF5"/>
<path d="M1147.34 280.479H1240.68V373.975H1147.34V280.479Z" fill="#4B3FF5"/>
<path d="M774 373.975H867.336V467.469H774V373.975Z" fill="#4B3FF5"/>
<path d="M1147.34 373.975H1240.68V467.469H1147.34V373.975Z" fill="#4B3FF5"/>
<path d="M774 467.469H867.336V560.962H774V467.469Z" fill="#4B3FF5"/>
<path d="M1147.34 467.469H1240.68V560.962C1189.13 560.962 1147.34 519.104 1147.34 467.469Z" fill="#4B3FF5"/>
<path d="M1408.68 411.371V373.973C1418.99 373.973 1427.35 365.793 1429.22 355.275H1464.68V373.973C1444.07 373.973 1427.35 390.717 1427.35 411.371H1408.68Z" fill="#4B3FF5"/>
<path d="M1408.68 430.072V467.469C1418.99 467.469 1427.35 475.65 1429.22 486.168H1464.68V467.469C1444.07 467.469 1427.35 450.726 1427.35 430.072H1408.68Z" fill="#4B3FF5"/>
<path d="M1726.03 224.386V186.988C1715.72 186.988 1707.36 178.808 1705.49 168.29H1670.02V186.988C1690.64 186.988 1707.36 203.732 1707.36 224.386H1726.03Z" fill="#4B3FF5"/>
<path d="M1334.01 186.987C1334.01 135.352 1375.8 93.4941 1427.35 93.4941V186.987H1334.01Z" fill="#4B3FF5"/>
<path d="M1520.69 93.4932H1614.02V186.987H1520.69V93.4932Z" fill="#4B3FF5"/>
<path d="M1427.35 93.4939L1520.69 93.4932V186.987H1427.35V93.4939Z" fill="#4B3FF5"/>
<path d="M1614.02 93.4932C1665.57 93.4932 1707.36 135.352 1707.36 186.987H1614.02V93.4932Z" fill="#4B3FF5"/>
<path d="M1334.01 186.987H1427.35V280.478H1334.01V186.987Z" fill="#4B3FF5"/>
<path d="M1707.36 186.987L1800.69 186.984V280.478H1707.36V186.987Z" fill="#4B3FF5"/>
<path d="M1520.69 280.481H1614.02V373.974H1520.69V280.481Z" fill="#4B3FF5"/>
<path d="M1427.35 373.974C1427.35 322.339 1469.14 280.481 1520.69 280.481V373.974H1427.35Z" fill="#4B3FF5"/>
<path d="M1614.02 280.481L1707.36 280.478V373.974H1614.02V280.481Z" fill="#4B3FF5"/>
<path d="M1707.36 280.478H1800.69V373.974H1707.36V280.478Z" fill="#4B3FF5"/>
<path d="M1334.01 373.974H1427.35V467.468H1334.01V373.974Z" fill="#4B3FF5"/>
<path d="M1707.36 373.974H1800.69V467.468H1707.36V373.974Z" fill="#4B3FF5"/>
<path d="M1520.69 467.468H1614.02V560.962H1520.69V467.468Z" fill="#4B3FF5"/>
<path d="M1427.35 467.468H1520.69V560.962C1469.14 560.962 1427.35 519.103 1427.35 467.468Z" fill="#4B3FF5"/>
<path d="M1614.02 467.468H1707.36C1707.36 519.103 1665.57 560.962 1614.02 560.962V467.468Z" fill="#4B3FF5"/>
<path d="M1707.36 467.468H1800.69V560.962H1707.36V467.468Z" fill="#4B3FF5"/>
<path d="M2015.37 430.073V467.47C2025.67 467.47 2034.03 475.651 2035.9 486.169H2071.37V467.47C2050.75 467.47 2034.03 450.727 2034.03 430.073H2015.37Z" fill="#4B3FF5"/>
<path d="M1922.03 130.89V93.4926C1932.34 93.4926 1940.7 85.312 1942.56 74.7939H1978.03V93.4926C1957.41 93.4926 1940.7 110.236 1940.7 130.89H1922.03Z" fill="#4B3FF5"/>
<path d="M1940.7 93.4934C1940.7 41.8584 1982.48 0 2034.03 0V93.4934H1940.7Z" fill="#4B3FF5"/>
<path d="M1847.36 93.4936L1940.7 93.4932V186.987H1847.36V93.4936Z" fill="#4B3FF5"/>
<path d="M2034.03 186.987C2034.03 135.352 2075.82 93.4941 2127.37 93.4941V186.987H2034.03Z" fill="#4B3FF5"/>
<path d="M1940.7 93.4932H2034.03V186.987H1940.7V93.4932Z" fill="#4B3FF5"/>
<path d="M2127.37 93.4941H2220.7V186.987H2127.37V93.4941Z" fill="#4B3FF5"/>
<path d="M2220.7 93.4941H2314.04V186.987H2220.7V93.4941Z" fill="#4B3FF5"/>
<path d="M1940.7 186.987H2034.03V280.479H1940.7V186.987Z" fill="#4B3FF5"/>
<path d="M1940.7 280.479H2034.03V373.975H1940.7V280.479Z" fill="#4B3FF5"/>
<path d="M1940.7 373.975H2034.03V467.469H1940.7V373.975Z" fill="#4B3FF5"/>
<path d="M2034.03 467.469H2127.37V560.962C2075.82 560.962 2034.03 519.104 2034.03 467.469Z" fill="#4B3FF5"/>
<path d="M2127.37 467.469H2220.7V560.962H2127.37V467.469Z" fill="#4B3FF5"/>
</g>
<defs>
<clipPath id="clip0_180_2386">
<rect width="4157" height="568" fill="white"/>
</clipPath>
</defs>
</svg>
